<mxfile host="app.diagrams.net" modified="2024-04-14T14:09:42.061Z" agent="Mozilla/5.0 (X11; Ubuntu; Linux x86_64; rv:124.0) Gecko/20100101 Firefox/124.0" version="24.2.2" etag="_pUEQVQ0G05fPo1bh_W9" type="github">
  <diagram name="Page-1" id="iUqjAC1fyIKjEunl-YFc">
    <mxGraphModel>
      <root>
        <mxCell id="0" />
        <mxCell id="1" parent="0" />
      </root>
    </mxGraphModel>
  </diagram>
</mxfile>
